<svg id="visual" viewBox="0 0 900 600" width="900" height="600" xmlns="http://www.w3.org/2000/svg" xmlns:xlink="http://www.w3.org/1999/xlink" version="1.1"><g stroke-width="1" stroke-linejoin="bevel"><path d="M436 320L326 324L435 366Z" fill="#224c92" stroke="#224c92"></path><path d="M462 465L475 426L435 366Z" fill="#2857a9" stroke="#2857a9"></path><path d="M435 366L485 268L436 320Z" fill="#1a3766" stroke="#1a3766"></path><path d="M475 426L485 268L435 366Z" fill="#18315c" stroke="#18315c"></path><path d="M436 320L373 199L326 324Z" fill="#25529e" stroke="#25529e"></path><path d="M326 324L309 463L435 366Z" fill="#224c92" stroke="#224c92"></path><path d="M485 268L469 231L436 320Z" fill="#1a3766" stroke="#1a3766"></path><path d="M280 429L309 463L326 324Z" fill="#2857a9" stroke="#2857a9"></path><path d="M469 231L373 199L436 320Z" fill="#152747" stroke="#152747"></path><path d="M326 324L207 262L280 429Z" fill="#224c92" stroke="#224c92"></path><path d="M423 494L462 465L435 366Z" fill="#2857a9" stroke="#2857a9"></path><path d="M309 463L423 494L435 366Z" fill="#224c92" stroke="#224c92"></path><path d="M373 199L263 233L326 324Z" fill="#152747" stroke="#152747"></path><path d="M206 81L236 233L263 233Z" fill="#162c51" stroke="#162c51"></path><path d="M263 233L207 262L326 324Z" fill="#1a3766" stroke="#1a3766"></path><path d="M236 233L207 262L263 233Z" fill="#1e417c" stroke="#1e417c"></path><path d="M469 231L401 138L373 199Z" fill="#18315c" stroke="#18315c"></path><path d="M373 199L303 87L263 233Z" fill="#1e417c" stroke="#1e417c"></path><path d="M207 262L191 427L280 429Z" fill="#25529e" stroke="#25529e"></path><path d="M280 429L181 527L309 463Z" fill="#152747" stroke="#152747"></path><path d="M612 490L583 422L462 465Z" fill="#162c51" stroke="#162c51"></path><path d="M462 465L583 422L475 426Z" fill="#2857a9" stroke="#2857a9"></path><path d="M475 426L583 422L485 268Z" fill="#1e417c" stroke="#1e417c"></path><path d="M485 268L616 223L469 231Z" fill="#224c92" stroke="#224c92"></path><path d="M583 422L619 336L485 268Z" fill="#152747" stroke="#152747"></path><path d="M469 231L517 91L401 138Z" fill="#1c3c71" stroke="#1c3c71"></path><path d="M75 235L133 308L207 262Z" fill="#13223d" stroke="#13223d"></path><path d="M207 262L133 308L191 427Z" fill="#1c3c71" stroke="#1c3c71"></path><path d="M619 336L616 223L485 268Z" fill="#224c92" stroke="#224c92"></path><path d="M300 600L438 600L423 494Z" fill="#2857a9" stroke="#2857a9"></path><path d="M423 494L469 600L462 465Z" fill="#162c51" stroke="#162c51"></path><path d="M300 600L423 494L309 463Z" fill="#1c3c71" stroke="#1c3c71"></path><path d="M420 0L303 87L401 138Z" fill="#224c92" stroke="#224c92"></path><path d="M401 138L303 87L373 199Z" fill="#2857a9" stroke="#2857a9"></path><path d="M236 233L75 235L207 262Z" fill="#1e417c" stroke="#1e417c"></path><path d="M236 600L300 600L309 463Z" fill="#1c3c71" stroke="#1c3c71"></path><path d="M438 600L469 600L423 494Z" fill="#204787" stroke="#204787"></path><path d="M191 427L181 527L280 429Z" fill="#1e417c" stroke="#1e417c"></path><path d="M126 536L181 527L191 427Z" fill="#224c92" stroke="#224c92"></path><path d="M585 600L612 490L462 465Z" fill="#13223d" stroke="#13223d"></path><path d="M715 370L706 330L619 336Z" fill="#162c51" stroke="#162c51"></path><path d="M616 223L517 91L469 231Z" fill="#25529e" stroke="#25529e"></path><path d="M181 527L236 600L309 463Z" fill="#1c3c71" stroke="#1c3c71"></path><path d="M316 0L206 81L303 87Z" fill="#224c92" stroke="#224c92"></path><path d="M303 87L206 81L263 233Z" fill="#1e417c" stroke="#1e417c"></path><path d="M0 309L78 429L133 308Z" fill="#13223d" stroke="#13223d"></path><path d="M133 308L78 429L191 427Z" fill="#1a3766" stroke="#1a3766"></path><path d="M181 527L126 536L236 600Z" fill="#1e417c" stroke="#1e417c"></path><path d="M78 429L126 536L191 427Z" fill="#1a3766" stroke="#1a3766"></path><path d="M616 223L596 101L517 91Z" fill="#162c51" stroke="#162c51"></path><path d="M715 370L619 336L583 422Z" fill="#152747" stroke="#152747"></path><path d="M619 336L706 330L616 223Z" fill="#2857a9" stroke="#2857a9"></path><path d="M616 223L721 137L596 101Z" fill="#1a3766" stroke="#1a3766"></path><path d="M206 81L75 235L236 233Z" fill="#204787" stroke="#204787"></path><path d="M469 600L585 600L462 465Z" fill="#2857a9" stroke="#2857a9"></path><path d="M612 490L715 370L583 422Z" fill="#25529e" stroke="#25529e"></path><path d="M736 470L715 370L612 490Z" fill="#204787" stroke="#204787"></path><path d="M471 0L420 0L517 91Z" fill="#1e417c" stroke="#1e417c"></path><path d="M517 91L420 0L401 138Z" fill="#1a3766" stroke="#1a3766"></path><path d="M420 0L316 0L303 87Z" fill="#224c92" stroke="#224c92"></path><path d="M581 0L471 0L517 91Z" fill="#1c3c71" stroke="#1c3c71"></path><path d="M702 600L736 470L612 490Z" fill="#2857a9" stroke="#2857a9"></path><path d="M0 176L0 309L75 235Z" fill="#18315c" stroke="#18315c"></path><path d="M75 235L0 309L133 308Z" fill="#162c51" stroke="#162c51"></path><path d="M0 477L83 600L126 536Z" fill="#224c92" stroke="#224c92"></path><path d="M0 309L0 410L78 429Z" fill="#224c92" stroke="#224c92"></path><path d="M782 380L769 294L715 370Z" fill="#1e417c" stroke="#1e417c"></path><path d="M715 370L769 294L706 330Z" fill="#152747" stroke="#152747"></path><path d="M706 330L769 294L616 223Z" fill="#25529e" stroke="#25529e"></path><path d="M0 477L126 536L78 429Z" fill="#152747" stroke="#152747"></path><path d="M126 536L83 600L236 600Z" fill="#18315c" stroke="#18315c"></path><path d="M769 294L734 163L616 223Z" fill="#2857a9" stroke="#2857a9"></path><path d="M596 101L581 0L517 91Z" fill="#224c92" stroke="#224c92"></path><path d="M717 0L581 0L596 101Z" fill="#152747" stroke="#152747"></path><path d="M734 163L721 137L616 223Z" fill="#152747" stroke="#152747"></path><path d="M163 0L98 63L206 81Z" fill="#25529e" stroke="#25529e"></path><path d="M206 81L98 63L75 235Z" fill="#224c92" stroke="#224c92"></path><path d="M736 470L782 380L715 370Z" fill="#1e417c" stroke="#1e417c"></path><path d="M0 410L0 477L78 429Z" fill="#152747" stroke="#152747"></path><path d="M316 0L163 0L206 81Z" fill="#1a3766" stroke="#1a3766"></path><path d="M585 600L702 600L612 490Z" fill="#13223d" stroke="#13223d"></path><path d="M736 470L781 507L782 380Z" fill="#224c92" stroke="#224c92"></path><path d="M98 63L0 176L75 235Z" fill="#152747" stroke="#152747"></path><path d="M702 600L781 507L736 470Z" fill="#18315c" stroke="#18315c"></path><path d="M163 0L106 0L98 63Z" fill="#1e417c" stroke="#1e417c"></path><path d="M98 63L0 84L0 176Z" fill="#18315c" stroke="#18315c"></path><path d="M769 294L806 193L734 163Z" fill="#2857a9" stroke="#2857a9"></path><path d="M734 163L783 75L721 137Z" fill="#13223d" stroke="#13223d"></path><path d="M721 137L717 0L596 101Z" fill="#1c3c71" stroke="#1c3c71"></path><path d="M900 208L806 193L769 294Z" fill="#2857a9" stroke="#2857a9"></path><path d="M900 332L769 294L782 380Z" fill="#204787" stroke="#204787"></path><path d="M0 0L0 84L98 63Z" fill="#25529e" stroke="#25529e"></path><path d="M0 477L0 600L83 600Z" fill="#152747" stroke="#152747"></path><path d="M783 75L717 0L721 137Z" fill="#224c92" stroke="#224c92"></path><path d="M702 600L785 600L781 507Z" fill="#1e417c" stroke="#1e417c"></path><path d="M900 389L900 332L782 380Z" fill="#162c51" stroke="#162c51"></path><path d="M806 193L783 75L734 163Z" fill="#1e417c" stroke="#1e417c"></path><path d="M106 0L0 0L98 63Z" fill="#1e417c" stroke="#1e417c"></path><path d="M900 389L782 380L900 477Z" fill="#162c51" stroke="#162c51"></path><path d="M806 193L900 121L783 75Z" fill="#13223d" stroke="#13223d"></path><path d="M900 477L782 380L781 507Z" fill="#224c92" stroke="#224c92"></path><path d="M900 332L900 208L769 294Z" fill="#1e417c" stroke="#1e417c"></path><path d="M900 600L900 477L781 507Z" fill="#18315c" stroke="#18315c"></path><path d="M900 121L814 0L783 75Z" fill="#1e417c" stroke="#1e417c"></path><path d="M783 75L814 0L717 0Z" fill="#1c3c71" stroke="#1c3c71"></path><path d="M900 208L900 121L806 193Z" fill="#1c3c71" stroke="#1c3c71"></path><path d="M785 600L900 600L781 507Z" fill="#1e417c" stroke="#1e417c"></path><path d="M900 121L900 0L814 0Z" fill="#1a3766" stroke="#1a3766"></path></g></svg>