<svg id="visual" viewBox="0 0 900 600" width="900" height="600" xmlns="http://www.w3.org/2000/svg" xmlns:xlink="http://www.w3.org/1999/xlink" version="1.1"><g stroke-width="1" stroke-linejoin="bevel"><path d="M502 292L586 286L510 219Z" fill="#ededed" stroke="#ededed"></path><path d="M586 286L620 224L510 219Z" fill="#f6f6f6" stroke="#f6f6f6"></path><path d="M623 389L687 297L586 286Z" fill="#f8f8f8" stroke="#f8f8f8"></path><path d="M586 286L687 297L620 224Z" fill="#f0f0f0" stroke="#f0f0f0"></path><path d="M510 219L396 221L502 292Z" fill="#ffffff" stroke="#ffffff"></path><path d="M402 397L494 404L502 292Z" fill="#f0f0f0" stroke="#f0f0f0"></path><path d="M502 292L494 404L586 286Z" fill="#fbfbfb" stroke="#fbfbfb"></path><path d="M494 404L623 389L586 286Z" fill="#f2f2f2" stroke="#f2f2f2"></path><path d="M687 297L697 210L620 224Z" fill="#ebebeb" stroke="#ebebeb"></path><path d="M620 224L609 109L510 219Z" fill="#ebebeb" stroke="#ebebeb"></path><path d="M510 219L484 80L396 221Z" fill="#f6f6f6" stroke="#f6f6f6"></path><path d="M697 210L609 109L620 224Z" fill="#f0f0f0" stroke="#f0f0f0"></path><path d="M396 221L383 323L502 292Z" fill="#f4f4f4" stroke="#f4f4f4"></path><path d="M609 109L484 80L510 219Z" fill="#ededed" stroke="#ededed"></path><path d="M383 323L402 397L502 292Z" fill="#f6f6f6" stroke="#f6f6f6"></path><path d="M697 210L675 99L609 109Z" fill="#f2f2f2" stroke="#f2f2f2"></path><path d="M609 109L525 0L484 80Z" fill="#ffffff" stroke="#ffffff"></path><path d="M402 397L509 474L494 404Z" fill="#f0f0f0" stroke="#f0f0f0"></path><path d="M494 404L509 474L623 389Z" fill="#f4f4f4" stroke="#f4f4f4"></path><path d="M692 495L721 407L623 389Z" fill="#f6f6f6" stroke="#f6f6f6"></path><path d="M623 389L721 407L687 297Z" fill="#f6f6f6" stroke="#f6f6f6"></path><path d="M687 297L772 205L697 210Z" fill="#fdfdfd" stroke="#fdfdfd"></path><path d="M774 325L772 205L687 297Z" fill="#e9e9e9" stroke="#e9e9e9"></path><path d="M697 210L772 205L675 99Z" fill="#f2f2f2" stroke="#f2f2f2"></path><path d="M509 474L608 487L623 389Z" fill="#f6f6f6" stroke="#f6f6f6"></path><path d="M484 80L388 77L396 221Z" fill="#fdfdfd" stroke="#fdfdfd"></path><path d="M396 221L275 274L383 323Z" fill="#f4f4f4" stroke="#f4f4f4"></path><path d="M721 407L774 325L687 297Z" fill="#f4f4f4" stroke="#f4f4f4"></path><path d="M307 107L302 209L396 221Z" fill="#f8f8f8" stroke="#f8f8f8"></path><path d="M383 323L278 383L402 397Z" fill="#f4f4f4" stroke="#f4f4f4"></path><path d="M597 0L525 0L609 109Z" fill="#ffffff" stroke="#ffffff"></path><path d="M484 80L378 0L388 77Z" fill="#f0f0f0" stroke="#f0f0f0"></path><path d="M675 99L597 0L609 109Z" fill="#fdfdfd" stroke="#fdfdfd"></path><path d="M699 0L597 0L675 99Z" fill="#f2f2f2" stroke="#f2f2f2"></path><path d="M302 209L275 274L396 221Z" fill="#e9e9e9" stroke="#e9e9e9"></path><path d="M608 487L692 495L623 389Z" fill="#ededed" stroke="#ededed"></path><path d="M721 407L795 393L774 325Z" fill="#f4f4f4" stroke="#f4f4f4"></path><path d="M388 77L307 107L396 221Z" fill="#fbfbfb" stroke="#fbfbfb"></path><path d="M302 209L224 214L275 274Z" fill="#f8f8f8" stroke="#f8f8f8"></path><path d="M378 0L307 107L388 77Z" fill="#f8f8f8" stroke="#f8f8f8"></path><path d="M402 397L384 492L509 474Z" fill="#f4f4f4" stroke="#f4f4f4"></path><path d="M509 474L573 600L608 487Z" fill="#ffffff" stroke="#ffffff"></path><path d="M608 487L573 600L692 495Z" fill="#ebebeb" stroke="#ebebeb"></path><path d="M278 383L384 492L402 397Z" fill="#fdfdfd" stroke="#fdfdfd"></path><path d="M782 502L795 393L721 407Z" fill="#ebebeb" stroke="#ebebeb"></path><path d="M900 174L812 115L772 205Z" fill="#ffffff" stroke="#ffffff"></path><path d="M275 274L278 383L383 323Z" fill="#e9e9e9" stroke="#e9e9e9"></path><path d="M812 115L699 0L675 99Z" fill="#fbfbfb" stroke="#fbfbfb"></path><path d="M772 205L812 115L675 99Z" fill="#f0f0f0" stroke="#f0f0f0"></path><path d="M900 273L772 205L774 325Z" fill="#f6f6f6" stroke="#f6f6f6"></path><path d="M525 0L378 0L484 80Z" fill="#fbfbfb" stroke="#fbfbfb"></path><path d="M197 74L224 214L307 107Z" fill="#f6f6f6" stroke="#f6f6f6"></path><path d="M307 107L224 214L302 209Z" fill="#ffffff" stroke="#ffffff"></path><path d="M275 274L221 321L278 383Z" fill="#ffffff" stroke="#ffffff"></path><path d="M224 214L221 321L275 274Z" fill="#f0f0f0" stroke="#f0f0f0"></path><path d="M278 383L327 516L384 492Z" fill="#f4f4f4" stroke="#f4f4f4"></path><path d="M472 600L573 600L509 474Z" fill="#fdfdfd" stroke="#fdfdfd"></path><path d="M224 420L327 516L278 383Z" fill="#e9e9e9" stroke="#e9e9e9"></path><path d="M692 495L782 502L721 407Z" fill="#ededed" stroke="#ededed"></path><path d="M716 600L782 502L692 495Z" fill="#fdfdfd" stroke="#fdfdfd"></path><path d="M472 600L509 474L384 492Z" fill="#f6f6f6" stroke="#f6f6f6"></path><path d="M403 600L472 600L384 492Z" fill="#f8f8f8" stroke="#f8f8f8"></path><path d="M221 321L224 420L278 383Z" fill="#fdfdfd" stroke="#fdfdfd"></path><path d="M900 424L900 273L795 393Z" fill="#f6f6f6" stroke="#f6f6f6"></path><path d="M795 393L900 273L774 325Z" fill="#f2f2f2" stroke="#f2f2f2"></path><path d="M900 0L802 0L812 115Z" fill="#f4f4f4" stroke="#f4f4f4"></path><path d="M812 115L802 0L699 0Z" fill="#f0f0f0" stroke="#f0f0f0"></path><path d="M311 600L403 600L327 516Z" fill="#f6f6f6" stroke="#f6f6f6"></path><path d="M327 516L403 600L384 492Z" fill="#f2f2f2" stroke="#f2f2f2"></path><path d="M900 273L900 174L772 205Z" fill="#ededed" stroke="#ededed"></path><path d="M378 0L274 0L307 107Z" fill="#ededed" stroke="#ededed"></path><path d="M900 174L900 126L812 115Z" fill="#fbfbfb" stroke="#fbfbfb"></path><path d="M573 600L716 600L692 495Z" fill="#fdfdfd" stroke="#fdfdfd"></path><path d="M274 0L197 74L307 107Z" fill="#fbfbfb" stroke="#fbfbfb"></path><path d="M224 214L80 224L221 321Z" fill="#f8f8f8" stroke="#f8f8f8"></path><path d="M115 497L189 511L224 420Z" fill="#fdfdfd" stroke="#fdfdfd"></path><path d="M900 515L900 424L782 502Z" fill="#ededed" stroke="#ededed"></path><path d="M782 502L900 424L795 393Z" fill="#ebebeb" stroke="#ebebeb"></path><path d="M226 600L311 600L327 516Z" fill="#f8f8f8" stroke="#f8f8f8"></path><path d="M716 600L809 600L782 502Z" fill="#f2f2f2" stroke="#f2f2f2"></path><path d="M72 390L224 420L221 321Z" fill="#f8f8f8" stroke="#f8f8f8"></path><path d="M224 420L189 511L327 516Z" fill="#fdfdfd" stroke="#fdfdfd"></path><path d="M809 600L900 515L782 502Z" fill="#fdfdfd" stroke="#fdfdfd"></path><path d="M900 126L900 0L812 115Z" fill="#ededed" stroke="#ededed"></path><path d="M274 0L176 0L197 74Z" fill="#e9e9e9" stroke="#e9e9e9"></path><path d="M197 74L80 224L224 214Z" fill="#f4f4f4" stroke="#f4f4f4"></path><path d="M99 72L80 224L197 74Z" fill="#ebebeb" stroke="#ebebeb"></path><path d="M189 511L226 600L327 516Z" fill="#fdfdfd" stroke="#fdfdfd"></path><path d="M80 224L73 314L221 321Z" fill="#f8f8f8" stroke="#f8f8f8"></path><path d="M189 511L125 600L226 600Z" fill="#fbfbfb" stroke="#fbfbfb"></path><path d="M127 0L99 72L197 74Z" fill="#f0f0f0" stroke="#f0f0f0"></path><path d="M73 314L72 390L221 321Z" fill="#ededed" stroke="#ededed"></path><path d="M72 390L115 497L224 420Z" fill="#f8f8f8" stroke="#f8f8f8"></path><path d="M176 0L127 0L197 74Z" fill="#fdfdfd" stroke="#fdfdfd"></path><path d="M809 600L900 600L900 515Z" fill="#f4f4f4" stroke="#f4f4f4"></path><path d="M115 497L125 600L189 511Z" fill="#f6f6f6" stroke="#f6f6f6"></path><path d="M0 600L125 600L115 497Z" fill="#f2f2f2" stroke="#f2f2f2"></path><path d="M0 97L80 224L99 72Z" fill="#f6f6f6" stroke="#f6f6f6"></path><path d="M0 97L0 227L80 224Z" fill="#e9e9e9" stroke="#e9e9e9"></path><path d="M80 224L0 294L73 314Z" fill="#f2f2f2" stroke="#f2f2f2"></path><path d="M73 314L0 294L72 390Z" fill="#f2f2f2" stroke="#f2f2f2"></path><path d="M72 390L0 482L115 497Z" fill="#f6f6f6" stroke="#f6f6f6"></path><path d="M0 227L0 294L80 224Z" fill="#f4f4f4" stroke="#f4f4f4"></path><path d="M0 294L0 420L72 390Z" fill="#ededed" stroke="#ededed"></path><path d="M0 0L0 97L99 72Z" fill="#ebebeb" stroke="#ebebeb"></path><path d="M0 420L0 482L72 390Z" fill="#f8f8f8" stroke="#f8f8f8"></path><path d="M127 0L0 0L99 72Z" fill="#ededed" stroke="#ededed"></path><path d="M0 482L0 600L115 497Z" fill="#f2f2f2" stroke="#f2f2f2"></path></g></svg>