<svg id="visual" viewBox="0 0 900 600" width="900" height="600" xmlns="http://www.w3.org/2000/svg" xmlns:xlink="http://www.w3.org/1999/xlink" version="1.1"><rect width="900" height="600" fill="#ffffff"></rect><g><g transform="translate(287 67)"><path d="M0 -65.7L56.9 -32.8L56.9 32.8L0 65.7L-56.9 32.8L-56.9 -32.8Z" fill="#0084ff"></path></g><g transform="translate(80 381)"><path d="M0 -52L45 -26L45 26L0 52L-45 26L-45 -26Z" fill="#0084ff"></path></g><g transform="translate(542 413)"><path d="M0 -47L40.7 -23.5L40.7 23.5L0 47L-40.7 23.5L-40.7 -23.5Z" fill="#0084ff"></path></g><g transform="translate(399 572)"><path d="M0 -41L35.5 -20.5L35.5 20.5L0 41L-35.5 20.5L-35.5 -20.5Z" fill="#0084ff"></path></g><g transform="translate(672 183)"><path d="M0 -42L36.4 -21L36.4 21L0 42L-36.4 21L-36.4 -21Z" fill="#0084ff"></path></g><g transform="translate(776 265)"><path d="M0 -25L21.7 -12.5L21.7 12.5L0 25L-21.7 12.5L-21.7 -12.5Z" fill="#0084ff"></path></g><g transform="translate(810 563)"><path d="M0 -28L24.2 -14L24.2 14L0 28L-24.2 14L-24.2 -14Z" fill="#0084ff"></path></g><g transform="translate(149 162)"><path d="M0 -37L32 -18.5L32 18.5L0 37L-32 18.5L-32 -18.5Z" fill="#0084ff"></path></g><g transform="translate(259 288)"><path d="M0 -34L29.4 -17L29.4 17L0 34L-29.4 17L-29.4 -17Z" fill="#0084ff"></path></g><g transform="translate(853 2)"><path d="M0 -60L52 -30L52 30L0 60L-52 30L-52 -30Z" fill="#0084ff"></path></g><g transform="translate(892 202)"><path d="M0 -32L27.7 -16L27.7 16L0 32L-27.7 16L-27.7 -16Z" fill="#0084ff"></path></g><g transform="translate(548 564)"><path d="M0 -56L48.5 -28L48.5 28L0 56L-48.5 28L-48.5 -28Z" fill="#0084ff"></path></g><g transform="translate(778 431)"><path d="M0 -62L53.7 -31L53.7 31L0 62L-53.7 31L-53.7 -31Z" fill="#0084ff"></path></g></g></svg>