<svg id="visual" viewBox="0 0 900 600" width="900" height="600" xmlns="http://www.w3.org/2000/svg" xmlns:xlink="http://www.w3.org/1999/xlink" version="1.1"><rect width="900" height="600" fill="#FFFFFF"></rect><g><g transform="translate(187 504)"><path d="M0 -32L32 0L0 32L-32 0Z" fill="#2857a9"></path></g><g transform="translate(479 399)"><path d="M0 -17L17 0L0 17L-17 0Z" fill="#2857a9"></path></g><g transform="translate(327 143)"><path d="M0 -17L17 0L0 17L-17 0Z" fill="#2857a9"></path></g><g transform="translate(416 420)"><path d="M0 -10L10 0L0 10L-10 0Z" fill="#2857a9"></path></g><g transform="translate(746 200)"><path d="M0 -25L25 0L0 25L-25 0Z" fill="#2857a9"></path></g><g transform="translate(865 216)"><path d="M0 -30L30 0L0 30L-30 0Z" fill="#2857a9"></path></g><g transform="translate(614 248)"><path d="M0 -9L9 0L0 9L-9 0Z" fill="#2857a9"></path></g><g transform="translate(2 115)"><path d="M0 -22L22 0L0 22L-22 0Z" fill="#2857a9"></path></g><g transform="translate(70 333)"><path d="M0 -23L23 0L0 23L-23 0Z" fill="#2857a9"></path></g><g transform="translate(524 513)"><path d="M0 -23L23 0L0 23L-23 0Z" fill="#2857a9"></path></g><g transform="translate(886 373)"><path d="M0 -22L22 0L0 22L-22 0Z" fill="#2857a9"></path></g><g transform="translate(80 490)"><path d="M0 -9L9 0L0 9L-9 0Z" fill="#2857a9"></path></g><g transform="translate(541 92)"><path d="M0 -30L30 0L0 30L-30 0Z" fill="#2857a9"></path></g><g transform="translate(59 417)"><path d="M0 -9L9 0L0 9L-9 0Z" fill="#2857a9"></path></g></g></svg>